<svg width="1462" height="1848" viewBox="0 0 1462 1848" fill="none" xmlns="http://www.w3.org/2000/svg">
<path fill-rule="evenodd" clip-rule="evenodd" d="M97.6439 1799.71C42.0441 1688.16 -41.468 1617.46 28.9642 1146.66L124.616 295.181C138.082 212.966 245.812 -51.5632 432.345 11.6784C490.372 31.3471 800.636 171.504 852.791 231.393C946.058 338.489 995.434 543.276 1082.75 629.63C1143.3 689.508 1187.31 719.333 1221.97 742.814C1286.64 786.632 1313.04 820.557 1359.02 974.246C1381.17 1048.29 1414.28 1103.9 1431.66 1138.66C1472.2 1219.76 1466.59 1348.19 1431.66 1427.34C1428.05 1435.52 1422.35 1442.44 1415.24 1447.87C1114.52 1677.91 518.753 1798.55 188.956 1844.11C151.741 1849.25 114.389 1833.3 97.6439 1799.71ZM150.053 818.302L209.903 295.181C209.903 243.382 250.8 88.8972 432.345 124.274C561.023 166.615 731.997 232.958 769.5 295.181C826.857 390.342 868.8 565.251 961.02 657.375C1016.18 712.479 1136.93 769.291 1168.5 790.899C1227.42 831.225 1241.32 872.17 1283.21 1013.61C1326.7 1160.43 1439.84 1230.05 1363.16 1393.2C1360.56 1398.74 1356.48 1403.37 1351.3 1406.63C1184.1 1511.73 779.697 1700.09 230.772 1764.3C204.995 1767.31 176.665 1757.94 163.904 1735.34C161.803 1731.62 159.386 1727.12 156.536 1721.58L1285.21 1307.56L1269.75 1277.69L124.616 1670.27C89.9382 1550.96 103.169 1241.8 150.053 818.302Z" fill="#1E1D22"/>
<path d="M97.6439 1799.71C42.0441 1688.16 -41.468 1617.46 28.9642 1146.66L124.616 295.181C138.082 212.966 245.812 -51.5632 432.345 11.6784C490.372 31.3471 800.636 171.504 852.791 231.393C946.058 338.489 995.434 543.276 1082.75 629.63C1143.3 689.508 1187.31 719.333 1221.97 742.814C1286.64 786.632 1313.04 820.557 1359.02 974.246C1381.17 1048.29 1414.28 1103.9 1431.66 1138.66C1472.2 1219.76 1466.59 1348.19 1431.66 1427.34M97.6439 1799.71C114.389 1833.3 151.741 1849.25 188.956 1844.11M97.6439 1799.71C113.848 1832.22 147.09 1849.68 183.1 1844.9C185.072 1844.64 187.026 1844.38 188.956 1844.11M188.956 1844.11C518.753 1798.55 1114.52 1677.91 1415.24 1447.87M1415.24 1447.87C1422.35 1442.44 1428.05 1435.52 1431.66 1427.34M1415.24 1447.87C1420.32 1443.99 1429.19 1432.94 1431.66 1427.34M150.053 818.302L209.903 295.181C209.903 243.382 250.8 88.8972 432.345 124.274C561.023 166.615 731.997 232.958 769.5 295.181C826.857 390.342 868.8 565.251 961.02 657.375C1016.18 712.479 1136.93 769.291 1168.5 790.899C1227.42 831.225 1241.32 872.17 1283.21 1013.61C1326.7 1160.43 1439.84 1230.05 1363.16 1393.2C1360.56 1398.74 1356.48 1403.37 1351.3 1406.63C1184.1 1511.73 779.697 1700.09 230.772 1764.3C204.995 1767.31 176.665 1757.94 163.904 1735.34C161.803 1731.62 159.386 1727.12 156.536 1721.58L1285.21 1307.56L1269.75 1277.69L124.616 1670.27C89.9382 1550.96 103.169 1241.8 150.053 818.302Z" stroke="#1E1D22" stroke-width="4"/>
</svg>
