<svg width="1462" height="1852" viewBox="0 0 1462 1852" fill="none" xmlns="http://www.w3.org/2000/svg">
<path fill-rule="evenodd" clip-rule="evenodd" d="M97.6439 1799.71C42.0441 1688.16 -41.468 1617.46 28.9642 1146.66L124.616 295.181C138.082 212.966 245.812 -51.5632 432.345 11.6784C490.372 31.3471 800.636 171.504 852.791 231.393C946.058 338.489 995.434 543.276 1082.75 629.63C1143.3 689.508 1187.31 719.333 1221.97 742.814C1286.64 786.632 1313.04 820.557 1359.02 974.246C1381.17 1048.29 1414.28 1103.9 1431.66 1138.66C1472.2 1219.76 1466.59 1348.19 1431.66 1427.34C1428.05 1435.52 1422.35 1442.44 1415.24 1447.87C1114.52 1677.91 518.753 1798.55 188.956 1844.11C151.741 1849.25 114.389 1833.3 97.6439 1799.71ZM150.053 818.302L209.903 295.181C209.903 243.382 250.8 88.8972 432.345 124.274C561.023 166.615 731.997 232.958 769.5 295.181C826.857 390.342 868.8 565.251 961.02 657.375C1016.18 712.479 1136.93 769.291 1168.5 790.899C1227.42 831.225 1241.32 872.17 1283.21 1013.61C1326.7 1160.43 1439.84 1230.05 1363.16 1393.2C1360.56 1398.74 1356.48 1403.37 1351.3 1406.63C1184.1 1511.73 779.697 1700.09 230.772 1764.3C204.995 1767.31 176.665 1757.94 163.904 1735.34C161.803 1731.62 159.386 1727.12 156.536 1721.58L1285.21 1307.56L1269.75 1277.69L124.616 1670.27C89.9382 1550.96 103.169 1241.8 150.053 818.302Z" fill="#1E1D22"/>
<path d="M97.6439 1799.71C42.0441 1688.16 -41.468 1617.46 28.9642 1146.66L124.616 295.181C138.082 212.966 245.812 -51.5632 432.345 11.6784C490.372 31.3471 800.636 171.504 852.791 231.393C946.058 338.489 995.434 543.276 1082.75 629.63C1143.3 689.508 1187.31 719.333 1221.97 742.814C1286.64 786.632 1313.04 820.557 1359.02 974.246C1381.17 1048.29 1414.28 1103.9 1431.66 1138.66C1472.2 1219.76 1466.59 1348.19 1431.66 1427.34M97.6439 1799.71C114.389 1833.3 151.741 1849.25 188.956 1844.11M97.6439 1799.71C113.848 1832.22 147.09 1849.68 183.1 1844.9C185.072 1844.64 187.026 1844.38 188.956 1844.11M188.956 1844.11C518.753 1798.55 1114.52 1677.91 1415.24 1447.87M1415.24 1447.87C1422.35 1442.44 1428.05 1435.52 1431.66 1427.34M1415.24 1447.87C1420.32 1443.99 1429.19 1432.94 1431.66 1427.34M150.053 818.302L209.903 295.181C209.903 243.382 250.8 88.8972 432.345 124.274C561.023 166.615 731.997 232.958 769.5 295.181C826.857 390.342 868.8 565.251 961.02 657.375C1016.18 712.479 1136.93 769.291 1168.5 790.899C1227.42 831.225 1241.32 872.17 1283.21 1013.61C1326.7 1160.43 1439.84 1230.05 1363.16 1393.2C1360.56 1398.74 1356.48 1403.37 1351.3 1406.63C1184.1 1511.73 779.697 1700.09 230.772 1764.3C204.995 1767.31 176.665 1757.94 163.904 1735.34C161.803 1731.62 159.386 1727.12 156.536 1721.58L1285.21 1307.56L1269.75 1277.69L124.616 1670.27C89.9382 1550.96 103.169 1241.8 150.053 818.302Z" stroke="#1E1D22" stroke-width="4"/>
<path d="M148 850.508C119.48 1200.51 10.9999 1572.01 119.5 1688.5L1114.5 1323.51C1096.33 1291.51 1066.4 1225.51 1092 1217.51C1117.6 1209.51 1265.33 1257.17 1336 1282.01L1321.5 1323.51L1375.5 1343.51C1425 1257.51 1338.5 1084.51 1306.5 1050.01C1274.5 1015.51 1305 875.507 1178 795.507C1051 715.507 1026 658.507 993.001 641.007C966.601 627.007 858.667 397.84 808.001 285.007C715.834 234.006 513.5 124.204 441.5 93.0043C369.5 61.8043 318 103.008 318 103.008C318 103.008 193 156.007 214 300.004H258.5L197 824.008C197 824.008 149.018 838.008 148 850.508Z" fill="#2B6313" stroke="#2B6313" stroke-width="14"/>
<path d="M272 587.008C270.4 457.008 348.333 412.841 387.5 407.008C417 419.508 424.5 441.508 373 493.508C331.8 535.108 340.5 565.008 353 599.508C365.5 634.008 289 693.008 313.5 722.508C327.1 777.708 395 737.508 434.5 737.508C493.5 737.508 563.5 783.008 577.5 799.008C603.667 817.674 671.3 874.308 732.5 951.508C793.7 1028.71 825 1034.98 853 1048.01C886.667 1063.67 952 1089.89 978.5 1115.51C993.5 1130.01 1104.5 1156.01 1141.5 1156.01C1193.97 1156.01 1360 1223.51 1388 1277.51C1387.17 1276.84 1304.97 1215.51 1247.5 1215.51C1194 1215.51 1168.5 1181.01 1141.5 1181.01C1097 1181.01 972.638 1141.53 951 1122.51C922 1097.01 836.798 1062.53 811.5 1056.51C748.5 1041.51 752 989.008 688 969.008C629.103 950.602 583.453 878.744 573.844 819.24C573.706 818.381 572.627 818.058 572.045 818.705C547.07 846.518 457.782 884.844 434.5 865.508C410.9 845.908 370.333 857.341 353 865.508C217.5 942.008 242 784.008 249.5 764.508C255.5 748.908 267 639.674 272 587.008Z" fill="#56B8DF" stroke="#2B6313" stroke-width="10"/>
<path d="M671 340.434C668.999 328.792 667.168 319.7 661 312.728C655.166 305.452 638.974 293.367 619.5 304.098C604.696 324.47 578.669 316.063 570.5 312.728C539.826 307.574 467.594 303.489 427.476 343.039C385.965 383.961 288.94 403.509 288.94 281.643C288.941 172.579 393 151.487 463 151.43C509.09 151.392 545 185.257 570.5 189.116C651.533 201.379 651.533 242.559 651.533 271.649C651.533 281.643 682.541 286.201 698.045 271.649C713.549 257.098 779.066 279.38 751.058 324.854C723.051 370.327 673.501 354.985 671 340.434Z" fill="#56B8DF" stroke="#2B6313" stroke-width="10"/>
</svg>
