<svg width="1333" height="1623" viewBox="0 0 1333 1623" fill="none" xmlns="http://www.w3.org/2000/svg">
<path d="M82.7333 776.18C54.2139 1126.18 -54.2665 1497.68 54.2337 1614.18L1049.23 1249.18C1031.07 1217.18 1001.13 1151.18 1026.73 1143.18C1052.33 1135.18 1200.07 1182.85 1270.73 1207.68L1256.23 1249.18L1310.23 1269.18C1359.73 1183.18 1273.23 1010.18 1241.23 975.679C1209.23 941.179 1239.73 801.179 1112.73 721.179C985.734 641.179 960.734 584.179 927.734 566.679C901.334 552.679 793.401 323.512 742.734 210.679C650.568 159.678 448.234 49.8761 376.234 18.6761C304.234 -12.5239 252.733 28.6797 252.733 28.6797C252.733 28.6797 127.733 81.6788 148.734 225.676H193.234L131.733 749.68C131.733 749.68 83.7518 763.68 82.7333 776.18Z" fill="#2B6313" stroke="#2B6313" stroke-width="14"/>
</svg>
