<svg width="479" height="233" viewBox="0 0 479 233" fill="none" xmlns="http://www.w3.org/2000/svg">
<path d="M387.06 194.004C385.059 182.363 383.228 173.27 377.06 166.298C371.226 159.023 355.033 146.937 335.56 157.668C320.756 178.04 294.729 169.633 286.56 166.298C255.885 161.144 183.654 157.059 143.535 196.609C102.024 237.532 4.99935 257.08 5 135.213C5.00058 26.1488 109.06 5.05766 179.06 5.00002C225.15 4.96207 261.06 38.8272 286.56 42.6863C367.593 54.9497 367.593 96.1291 367.593 125.22C367.593 135.213 398.601 139.771 414.105 125.22C429.609 110.668 495.125 132.95 467.118 178.424C439.111 223.897 389.56 208.556 387.06 194.004Z" fill="#56B8DF" stroke="#2B6313" stroke-width="10"/>
</svg>
