<svg width="1155" height="880" viewBox="0 0 1155 880" fill="none" xmlns="http://www.w3.org/2000/svg">
<path d="M34.124 185.156C32.524 55.1562 110.457 10.9896 149.624 5.15625C179.124 17.6562 186.624 39.6562 135.124 91.6562C93.924 133.256 102.624 163.156 115.124 197.656C127.624 232.156 51.124 291.156 75.624 320.656C89.224 375.856 157.124 335.656 196.624 335.656C255.624 335.656 325.624 381.156 339.624 397.156C365.791 415.823 433.424 472.456 494.624 549.656C555.824 626.856 587.124 633.127 615.124 646.156C648.791 661.823 714.124 688.04 740.624 713.656C755.624 728.156 866.624 754.156 903.624 754.156C956.095 754.156 1122.12 821.656 1150.12 875.656C1149.29 874.99 1067.1 813.656 1009.62 813.656C956.124 813.656 930.624 779.156 903.624 779.156C859.124 779.156 734.763 739.683 713.124 720.656C684.124 695.156 598.922 660.68 573.624 654.656C510.624 639.656 514.124 587.156 450.124 567.156C391.227 548.751 345.577 476.892 335.968 417.388C335.83 416.529 334.751 416.207 334.169 416.854C309.194 444.666 219.906 482.993 196.624 463.656C173.024 444.056 132.457 455.49 115.124 463.656C-20.3761 540.156 4.12394 382.156 11.6239 362.656C17.6239 347.056 29.124 237.823 34.124 185.156Z" fill="#56B8DF" stroke="#2B6313" stroke-width="10"/>
</svg>
